# xmcd
#
# Track frame offsets:
#	183
#	16245
#	38203
#	71770
#	93138
#	107328
#	127788
#	151798
#	174598
#	191785
#
# Disc length: 2880 seconds
#
# Revision: 0
# Processed by: cddbd v1.4PL0 Copyright (c) Steve Scherf et al.
# Submitted via: dBpowerAMP V4.0
#
DISCID=710b3e0a
DTITLE=Benkó Dixieland Band - Hungary - All of me
DYEAR=1989
DGENRE=Big Band
TTITLE0=I'm crazy but my Baby
TTITLE1=It's a long way
TTITLE2=Creole love call
TTITLE3=All of me
TTITLE4=Billis Banjo Band
TTITLE5=Limehouse Blues
TTITLE6=Is it true what they say baout dixie
TTITLE7=Hundred years from today
TTITLE8=Sit right down
TTITLE9=Baby wan't you please com home
EXTD=Benkó Dixieland Band - Hungary "All of me"
EXTT0=
EXTT1=
EXTT2=
EXTT3=
EXTT4=
EXTT5=
EXTT6=
EXTT7=
EXTT8=
EXTT9=
PLAYORDER=
